<svg xmlns="http://www.w3.org/2000/svg" viewBox="0 0 28.25 38.03"><defs><style>.cls-1{fill:none;stroke:#fff;stroke-linecap:round;stroke-linejoin:round;}</style></defs><g id="Layer_2" data-name="Layer 2"><g id="文字"><g id="icon_data" data-name="icon data"><line class="cls-1" x1="7.31" y1="25.19" x2="9.01" y2="25.19"/><line class="cls-1" x1="19.23" y1="25.19" x2="20.94" y2="25.19"/><path class="cls-1" d="M26,20.08V28.6a1.7,1.7,0,0,1-1.7,1.7H3.91A1.71,1.71,0,0,1,2.2,28.6V12.42"/><path class="cls-1" d="M2.2,7.31V2.2A1.71,1.71,0,0,1,3.91.5H24.34A1.7,1.7,0,0,1,26,2.2V20.94"/><line class="cls-1" x1="2.2" y1="20.08" x2="25.95" y2="20.08"/><line class="cls-1" x1="3.15" y1="7.31" x2="26.04" y2="7.31"/><line class="cls-1" x1="1.98" y1="36.04" x2="0.5" y2="37.53"/><line class="cls-1" x1="21.37" y1="31.15" x2="27.75" y2="37.53"/><line class="cls-1" x1="1.98" y1="36.04" x2="19.45" y2="36.04"/></g></g></g></svg>