<!-- Generated by IcoMoon.io -->
<svg version="1.1" xmlns="http://www.w3.org/2000/svg" width="1063" height="1024" viewBox="0 0 1063 1024">
<title></title>
<g id="icomoon-ignore">
</g>
<path fill="#fff" d="M863.97 1025.008h-183.218c-29.315 0-54.964-25.651-54.964-54.964v-219.861c0-10.994-7.328-18.321-18.321-18.321h-146.573c-10.994 0-18.321 7.328-18.321 18.321v219.861c0 29.315-25.651 54.964-54.964 54.964h-183.218c-29.315 0-54.964-25.651-54.964-54.964v-403.077c0-10.994-7.328-18.321-18.321-18.321h-80.615c-14.658 0-29.315-7.328-40.309-18.321s-14.658-25.651-14.658-40.309 7.328-29.315 18.321-36.643l476.365-428.728c21.985-18.321 51.3-18.321 73.288 0l476.365 432.392c10.994 10.994 14.658 21.985 18.321 36.643 3.664 29.315-21.985 54.964-51.3 58.63h-69.622c-10.994 0-18.321 7.328-18.321 18.321v403.077c0 25.651-25.651 51.3-54.964 51.3zM460.893 695.218h146.573c29.315 0 54.964 25.651 54.964 54.964v219.861c0 10.994 7.328 18.321 18.321 18.321h183.218c10.994 0 18.321-7.328 18.321-18.321v-403.077c0-29.315 25.651-54.964 54.964-54.964h69.622c7.328 0 18.321-10.994 14.658-18.321 0-3.664-3.664-7.328-3.664-10.994l-476.365-432.392c-7.328-7.328-18.321-7.328-25.651 0l-476.365 428.728c-3.664 3.664-7.328 7.328-7.328 10.994s0 10.994 3.664 14.658c3.664 3.664 7.328 7.328 14.658 7.328h80.615c29.315 0 54.964 25.651 54.964 54.964v403.077c0 10.994 7.328 18.321 18.321 18.321h183.218c10.994 0 18.321-7.328 18.321-18.321v-219.861c0-29.315 25.651-54.964 54.964-54.964z"></path>
</svg>
