<svg xmlns="http://www.w3.org/2000/svg" viewBox="0 0 33.53 26.54"><defs><style>.cls-1{fill:none;stroke:#fff;stroke-linecap:round;stroke-linejoin:round;}</style></defs><g id="Layer_2" data-name="Layer 2"><g id="文字"><g id="icon_data" data-name="icon data"><polyline class="cls-1" points="3 11.01 1.38 13.28 1.38 20.93 16.7 20.93"/><polyline class="cls-1" points="16.7 0.5 7.78 0.5 4.76 6.13"/><polyline class="cls-1" points="30.41 11.01 32.03 13.28 32.03 20.93 16.7 20.93"/><polyline class="cls-1" points="16.7 0.5 25.63 0.5 28.78 6.37"/><polyline class="cls-1" points="0.5 6.13 4.76 6.13 7.32 9.53 26.45 9.53 28.78 6.37 33.03 6.37"/><line class="cls-1" x1="6.49" y1="15.83" x2="8.19" y2="15.83"/><line class="cls-1" x1="25.22" y1="15.83" x2="26.92" y2="15.83"/><path class="cls-1" d="M9,22.64H9C9,24.51,7.89,26,6.49,26H4.78c-1.4,0-2.55-1.53-2.55-3.4h0"/><path class="cls-1" d="M31.18,22.64h0c0,1.87-1.15,3.4-2.56,3.4h-1.7c-1.4,0-2.55-1.53-2.55-3.4h0"/></g></g></g></svg>