<svg xmlns="http://www.w3.org/2000/svg" viewBox="0 0 40 31.37"><defs><style>.cls-1{fill:none;stroke:#d1b828;stroke-linecap:round;stroke-linejoin:round;}</style></defs><g id="Layer_2" data-name="Layer 2"><g id="レイヤー_1" data-name="レイヤー 1"><path class="cls-1" d="M.5,24.65v-22a2,2,0,0,1,1.8-2C5.91.33,14.09.08,18.42,4.27a2,2,0,0,0,2.75.11C26,.1,34.12.32,37.71.67a2,2,0,0,1,1.79,2v22a2,2,0,0,1-2.18,2c-3.75-.33-11.48-.4-16.15,3.74a2,2,0,0,1-2.75-.11c-4.19-4.05-12-4-15.75-3.63A2,2,0,0,1,.5,24.65Z"/><line class="cls-1" x1="19.5" y1="7.9" x2="19.5" y2="25.9"/></g></g></svg>